<svg id="Capa_1" data-name="Capa 1" xmlns="http://www.w3.org/2000/svg" viewBox="0 0 378 230"><defs><style>.cls-1{fill:#1c4b94;}.cls-2{fill:#199cd8;}.cls-3{fill:#1b4c95;}</style></defs><title>logo interlab</title><path class="cls-1" d="M164.55,42.73l-8.67-8.45a.78.78,0,0,0-1.15.06,39.73,39.73,0,0,0-9.32,22.53.77.77,0,0,0,.77.84l12.11.13a.78.78,0,0,0,.79-.68,26.22,26.22,0,0,1,5.54-13.39.78.78,0,0,0-.07-1"/><path class="cls-1" d="M158.35,62.83l-12.14-.13a.79.79,0,0,0-.79.86A39.81,39.81,0,0,0,151.79,82a.79.79,0,0,0,1.22.12l8.74-8.92a.79.79,0,0,0,.13-.92,26.2,26.2,0,0,1-2.76-8.78.78.78,0,0,0-.77-.68"/><path class="cls-2" d="M219.51,92.61h-11A39.94,39.94,0,0,0,225,63.53a.79.79,0,0,0-.79-.85H212.11a.79.79,0,0,0-.78.7,26.31,26.31,0,0,1-45.6,14.43.79.79,0,0,0-1.14,0l-8.45,8.63a.78.78,0,0,0,0,1.08A39.39,39.39,0,0,0,162,92.61H150.43c-1.41,0-2.56,1.9-2.56,4.25v3.78c0,2.35,1.15,4.25,2.56,4.25h69.08c1.41,0,2.56-1.9,2.56-4.25V96.86C222.07,94.51,220.92,92.61,219.51,92.61Z"/><rect class="cls-2" x="197.41" y="46.33" width="2.74" height="8.68" transform="translate(22.39 155.41) rotate(-45)"/><path class="cls-2" d="M225.92,29.93,227.86,28l-6.14-6.14-1.94,1.94.82.81-1.93,2-.85-.85L197.44,46.13l6.14,6.14,4.66-4.66A26.05,26.05,0,0,1,211.72,58a.78.78,0,0,0,.79.68l12.11-.12a.79.79,0,0,0,.77-.85,39.68,39.68,0,0,0-7.31-19.95L224,31.88l-.81-.81,1.93-2Z"/><path class="cls-1" d="M185.19,34a26,26,0,0,1,4.78.44.82.82,0,0,0,.72-.24L200,24.3A.8.8,0,0,0,199.7,23a40,40,0,0,0-39.94,6.43.79.79,0,0,0,0,1.18l8.72,8.51a.8.8,0,0,0,1,.06A26.15,26.15,0,0,1,185.19,34"/><path class="cls-1" d="M85.77,195.26a1.51,1.51,0,0,0-1.71-1.7H80.72V197h3.34A1.51,1.51,0,0,0,85.77,195.26Z"/><path class="cls-1" d="M153,193.43a2.58,2.58,0,0,0-2.68,1.46,8.85,8.85,0,0,0-.51,3.38v.82c0,1.9.27,3.19.8,3.85a2.43,2.43,0,0,0,.91.72,3.74,3.74,0,0,0,2.91,0,2.55,2.55,0,0,0,.93-.71,2.81,2.81,0,0,0,.51-1.1,10.17,10.17,0,0,0,.31-2.77v-.82a8.77,8.77,0,0,0-.53-3.38A2.56,2.56,0,0,0,153,193.43Z"/><polygon class="cls-1" points="249.09 201.26 252.89 201.26 251.03 195.46 249.09 201.26"/><path class="cls-1" d="M167.9,193.56h-1.52A1.22,1.22,0,0,0,165,195v3.21h2.9a2.11,2.11,0,0,0,1.61-.67,2.37,2.37,0,0,0,.63-1.68,2.25,2.25,0,0,0-.61-1.63A2.2,2.2,0,0,0,167.9,193.56Z"/><path class="cls-1" d="M188.44,193.43a2.58,2.58,0,0,0-2.68,1.46,8.85,8.85,0,0,0-.51,3.38v.82c0,1.9.27,3.19.8,3.85a2.43,2.43,0,0,0,.91.72,3.74,3.74,0,0,0,2.91,0,2.55,2.55,0,0,0,.93-.71,2.81,2.81,0,0,0,.51-1.1,10.17,10.17,0,0,0,.31-2.77v-.82a8.77,8.77,0,0,0-.53-3.38A2.56,2.56,0,0,0,188.44,193.43Z"/><path class="cls-1" d="M97.49,193.43a2.57,2.57,0,0,0-2.67,1.46,8.85,8.85,0,0,0-.51,3.38v.82c0,1.9.26,3.19.79,3.85a2.55,2.55,0,0,0,.92.72,3.28,3.28,0,0,0,1.46.3,3.35,3.35,0,0,0,1.45-.29,2.55,2.55,0,0,0,.93-.71,3,3,0,0,0,.51-1.1,10.17,10.17,0,0,0,.31-2.77v-.82a9,9,0,0,0-.53-3.38A2.56,2.56,0,0,0,97.49,193.43Z"/><path class="cls-1" d="M84.26,199.73H80.72v2.48a1.48,1.48,0,0,0,.46,1.26,2.41,2.41,0,0,0,1.49.36h1.59c1.15,0,1.73-.65,1.73-2a2.8,2.8,0,0,0-.38-1.6A1.51,1.51,0,0,0,84.26,199.73Z"/><path class="cls-1" d="M112.43,193.56H110.9a1.22,1.22,0,0,0-1.37,1.39v3.21h2.9a2.08,2.08,0,0,0,1.6-.67,2.37,2.37,0,0,0,.63-1.68,2.24,2.24,0,0,0-.6-1.63A2.2,2.2,0,0,0,112.43,193.56Z"/><polygon class="cls-1" points="66.87 201.26 70.68 201.26 68.82 195.02 66.87 201.26"/><polygon class="cls-1" points="124.27 201.26 128.07 201.26 126.22 195.02 124.27 201.26"/><rect class="cls-3" x="49.25" y="131.63" width="9.35" height="47.92"/><path class="cls-3" d="M100.73,131.63V174.7a5.72,5.72,0,0,1-1.34,3.81,4.06,4.06,0,0,1-3.17,1.58q-4.64,0-7.6-5.39L72.06,148.79v30.76H62.71V131.63h9L91.38,163V131.63Z"/><polygon class="cls-3" points="139.75 139.98 126.9 139.98 126.9 179.55 117.55 179.55 117.55 139.98 104.76 139.98 104.76 131.63 139.75 131.63 139.75 139.98"/><path class="cls-3" d="M175.84,179.55h-17q-8.07,0-11.33-2.79t-3.27-9.86V131.63h31.56V140h-22.2v11.24h15.54l-.67,8.34H153.64v6.67c0,1.88.42,3.18,1.27,3.9s2.4,1.08,4.65,1.08h16.28Z"/><path class="cls-3" d="M216.7,179.55H205.87l-9.36-17.77h-6.73v17.77h-9.35V141.93q0-5.38,2.49-7.84t8.34-2.46h7.94q7.14,0,11.34,4.34a15.16,15.16,0,0,1,4.21,11,14.06,14.06,0,0,1-2.52,8.38,13.08,13.08,0,0,1-6.23,4.87Zm-13.22-27.63a7.23,7.23,0,0,0,1.91-5.11,6.75,6.75,0,0,0-1.85-4.95A6.62,6.62,0,0,0,198.6,140H194q-4.17,0-4.17,4.24V154h8.82a6.4,6.4,0,0,0,4.88-2.06"/><path class="cls-2" d="M249.41,179.55H235.15q-8.09,0-11.68-3.13t-3.6-10.19v-34.6h9.35v34.6c0,1.88.43,3.18,1.28,3.9s2.4,1.08,4.65,1.08h14.26Z"/><path class="cls-2" d="M293.23,179.55h-9.76l-2.7-8.28H264.69l-2.62,8.28h-9.76l15.34-43.88a7.44,7.44,0,0,1,2.26-3.16,5.14,5.14,0,0,1,3.06-.88,4.89,4.89,0,0,1,2.93.81,6.78,6.78,0,0,1,2,3.23ZM278.62,163.4l-5.65-19-5.92,19Z"/><path class="cls-2" d="M330.89,165.75c0,4.45-1.2,7.85-3.6,10.23s-5.75,3.57-10.06,3.57h-6.46q-7.95,0-11.27-2.76t-3.34-9.56v-35.6h20.26q6.87,0,10.33,3.43t3.47,9.7a10.31,10.31,0,0,1-1.85,6.19,11.19,11.19,0,0,1-4.08,3.63q6.6,3.1,6.6,11.17m-15.21-15.41q5.18,0,5.18-5.18T315.68,140H305.52v10.36Zm5.86,14.94a8.6,8.6,0,0,0-1.15-4.88c-.76-1.1-2.13-1.65-4.1-1.65H305.52v7.54q0,2.76,1.38,3.84c.92.72,2.43,1.07,4.54,1.07h4.85q5.25,0,5.25-5.92"/><path class="cls-3" d="M53.14,126.5a6.75,6.75,0,1,0-5.9-7.51,6.76,6.76,0,0,0,5.9,7.51"/><path class="cls-3" d="M329.89,188.18a4.22,4.22,0,0,0-4.22-4.22H51.33a4.22,4.22,0,0,0-4.22,4.22v17.3a4.22,4.22,0,0,0,4.22,4.22H325.67a4.22,4.22,0,0,0,4.22-4.22v-17.3Zm-79.5-.49.84-2.34h3l-1.64,2.34a2.11,2.11,0,0,1-1.7,1.07c-.42,0-.62-.19-.62-.58A1.52,1.52,0,0,1,250.39,187.69ZM61.08,206.57h-4.7a5.74,5.74,0,0,1-3.83-1,4.23,4.23,0,0,1-1.19-3.35V190.81h3.08v11.38a1.6,1.6,0,0,0,.42,1.28,2.4,2.4,0,0,0,1.52.36h4.7Zm11.19,0-.88-2.72H66.1l-.86,2.72H62l5-14.43a2.46,2.46,0,0,1,.74-1,1.74,1.74,0,0,1,1-.29,1.56,1.56,0,0,1,1,.27,2.19,2.19,0,0,1,.65,1.06l5,14.43Zm15.61-1.17a4.5,4.5,0,0,1-3.31,1.17H82.45a5.85,5.85,0,0,1-3.71-.91,3.87,3.87,0,0,1-1.09-3.14V190.81h6.66a4.68,4.68,0,0,1,3.4,1.13,4.34,4.34,0,0,1,1.13,3.19,3.39,3.39,0,0,1-.6,2,3.72,3.72,0,0,1-1.34,1.2A3.71,3.71,0,0,1,89.07,202,4.56,4.56,0,0,1,87.88,205.4Zm15.88-6.24c0,2.64-.5,4.55-1.5,5.75s-2.59,1.79-4.79,1.79-3.78-.6-4.76-1.79-1.48-3.14-1.48-5.82v-1.15q0-3.67,1.5-5.47a5.64,5.64,0,0,1,4.4-1.78h.66a5.71,5.71,0,0,1,4.44,1.81,8.31,8.31,0,0,1,1.53,5.46Zm11.06,7.41-3.07-5.84h-2.22v5.84h-3.07V194.2a3.49,3.49,0,0,1,.82-2.58,3.8,3.8,0,0,1,2.74-.81h2.61a4.82,4.82,0,0,1,5.11,5.05,4.55,4.55,0,0,1-.83,2.75,4.28,4.28,0,0,1-2,1.61l3.51,6.35Zm14.85,0-.89-2.72H123.5l-.87,2.72h-3.21l5-14.43a2.46,2.46,0,0,1,.74-1,1.72,1.72,0,0,1,1-.29,1.56,1.56,0,0,1,1,.27,2.27,2.27,0,0,1,.65,1.06l5,14.43Zm15.62-13h-4.23v13H138v-13h-4.21v-2.75h11.51Zm13.94,5.6c0,2.64-.5,4.55-1.49,5.75s-2.6,1.79-4.79,1.79-3.79-.6-4.77-1.79-1.47-3.14-1.47-5.82v-1.15c0-2.45.49-4.27,1.49-5.47a5.64,5.64,0,0,1,4.4-1.78h.67a5.68,5.68,0,0,1,4.43,1.81,8.31,8.31,0,0,1,1.53,5.46Zm11.06,7.41-3.07-5.84H165v5.84h-3.08V194.2a3.49,3.49,0,0,1,.82-2.58,3.8,3.8,0,0,1,2.74-.81h2.61a4.82,4.82,0,0,1,5.11,5.05,4.61,4.61,0,0,1-.82,2.75,4.35,4.35,0,0,1-2,1.61l3.52,6.35Zm9.19,0H176.4V190.81h3.08Zm15.22-7.41c0,2.64-.5,4.55-1.49,5.75s-2.6,1.79-4.79,1.79-3.79-.6-4.77-1.79-1.47-3.14-1.47-5.82v-1.15c0-2.45.49-4.27,1.49-5.47a5.64,5.64,0,0,1,4.4-1.78h.67a5.68,5.68,0,0,1,4.43,1.81A8.31,8.31,0,0,1,194.7,198Zm18.21-5.6h-7.3v3.69h5.11L210.5,200h-4.89v2.19a1.6,1.6,0,0,0,.42,1.28,2.41,2.41,0,0,0,1.53.36h5.35v2.74h-5.58a5.78,5.78,0,0,1-3.72-.92,4.07,4.07,0,0,1-1.08-3.24v-11.6h10.38Zm11.22,13h-3.08V190.81h3.08Zm18.39,0h-3.08v-9.41l-2.83,6c-.41.8-.93,1.19-1.54,1.19s-1.12-.42-1.54-1.26l-2.87-5.91v9.41h-3.08V190.81h3l4.45,9.1,4.43-9.1h3Zm12,0-.89-2.72h-5.29l-.86,2.72h-3.21l5-14.43a2.46,2.46,0,0,1,.74-1,1.72,1.72,0,0,1,1-.29,1.6,1.6,0,0,1,1,.27,2.27,2.27,0,0,1,.65,1.06l5,14.43Zm7.66-6.74c0,.22,0,.56.07,1a4.11,4.11,0,0,0,.18,1c.08.21.2.47.35.8a1.49,1.49,0,0,0,.59.68,3.7,3.7,0,0,0,2.06.58,2.79,2.79,0,0,0,2.72-1.64v-1.06h-1.91v-2.57h4.54v4.76a4.83,4.83,0,0,1-2.17,2.43,6.8,6.8,0,0,1-3.36.82q-3.35,0-4.84-1.87c-1-1.24-1.49-3.14-1.49-5.67v-1.95a6.74,6.74,0,0,1,1.62-4.8,5.67,5.67,0,0,1,4.16-1.72h.61a6.1,6.1,0,0,1,4.28,1.72,5,5,0,0,1,1.21,3.65H267.9c0-1.76-.94-2.63-2.81-2.63a2.88,2.88,0,0,0-1.43.32,2.4,2.4,0,0,0-.87.74,3.26,3.26,0,0,0-.45,1.24,9.21,9.21,0,0,0-.17,1.37c0,.37,0,.86,0,1.48S262.15,199.62,262.15,199.83Zm22.22-6.32h0v.05H277v3.69h5.11l-.22,2.75H277v2.19a1.56,1.56,0,0,0,.42,1.28,2.38,2.38,0,0,0,1.52.36h5.36v2.74h-5.58a5.83,5.83,0,0,1-3.73-.92,4.11,4.11,0,0,1-1.07-3.24v-11.6h10.38v.62h0ZM299.63,205a1.86,1.86,0,0,1-.45,1.25,1.34,1.34,0,0,1-1,.52,2.87,2.87,0,0,1-2.5-1.77l-5.44-8.52v10.11h-3.07V190.81h3l6.46,10.32V190.81h3.08Zm13.56-11.42h-7.3v3.69H311l-.22,2.75h-4.89v2.19a1.6,1.6,0,0,0,.42,1.28,2.41,2.41,0,0,0,1.53.36h5.35v2.74h-5.58a5.78,5.78,0,0,1-3.72-.92,4.07,4.07,0,0,1-1.08-3.24v-11.6h10.38Zm12,11.87A6.59,6.59,0,0,1,321,206.7a7.63,7.63,0,0,1-3.89-1.1,4.54,4.54,0,0,1-1.53-1.63,4.75,4.75,0,0,1-.6-2.4l2.79-.13a2.09,2.09,0,0,0,1,1.85,4,4,0,0,0,2.26.67q2.76,0,2.76-2c0-1.06-.63-1.69-1.88-1.88l-2.57-.27a5.37,5.37,0,0,1-3.05-1.37,4.54,4.54,0,0,1,.49-6.48,6.09,6.09,0,0,1,3.73-1.32h.72a5.82,5.82,0,0,1,3.6,1.24,4,4,0,0,1,1.51,3.22l-2.75.13a2.29,2.29,0,0,0-2.59-1.92,3.46,3.46,0,0,0-2.11.57,1.68,1.68,0,0,0-.76,1.37,1.49,1.49,0,0,0,.55,1.23,2.69,2.69,0,0,0,1.37.57l2.52.26q4.23.58,4.23,4.56A4.18,4.18,0,0,1,325.18,205.43Z"/></svg>