<svg id="Capa_1" data-name="Capa 1" xmlns="http://www.w3.org/2000/svg" viewBox="0 0 263.09 73.04"><defs><style>.cls-1{fill:#1b4c95;}.cls-2{fill:#223a7a;}.cls-3{fill:#fff;}.cls-4{fill:#199cd8;}</style></defs><title>logo_ 2</title><path class="cls-1" d="M255.53,51H66.89a2.81,2.81,0,0,0-2.81,2.81V65.73a2.81,2.81,0,0,0,2.81,2.81H255.53a2.81,2.81,0,0,0,2.81-2.81V53.81A2.81,2.81,0,0,0,255.53,51ZM203.7,53.43l.58-1.61h2.08l-1.12,1.61a1.46,1.46,0,0,1-1.17.73c-.29,0-.43-.13-.43-.39A1.16,1.16,0,0,1,203.7,53.43ZM73.62,66.4H70.4a4,4,0,0,1-2.64-.7A2.93,2.93,0,0,1,67,63.39V55.58h2.11v7.81a1.1,1.1,0,0,0,.29.88,1.61,1.61,0,0,0,1.05.25h3.22Zm7.69,0-.6-1.87H77.07l-.59,1.87H74.27l3.47-9.91a1.65,1.65,0,0,1,.51-.71,1.13,1.13,0,0,1,.69-.2,1.08,1.08,0,0,1,.66.18,1.52,1.52,0,0,1,.45.73l3.47,9.91ZM92,65.6a3.11,3.11,0,0,1-2.27.8H88.31a4,4,0,0,1-2.55-.62A2.69,2.69,0,0,1,85,63.62v-8h4.57a3.22,3.22,0,0,1,2.34.77,3,3,0,0,1,.78,2.19,2.3,2.3,0,0,1-.42,1.4,2.42,2.42,0,0,1-.92.82,2.54,2.54,0,0,1,1.49,2.53A3.13,3.13,0,0,1,92,65.6ZM103,61.31a6.11,6.11,0,0,1-1,4,5,5,0,0,1-6.57,0,6.32,6.32,0,0,1-1-4v-.79a5.73,5.73,0,0,1,1-3.75,4,4,0,0,1,3.25-1.23,4,4,0,0,1,3.28,1.24,5.74,5.74,0,0,1,1,3.76Zm7.6,5.09-2.11-4h-1.52v4H104.8V57.9a2.38,2.38,0,0,1,.57-1.77,2.61,2.61,0,0,1,1.88-.55H109A3.31,3.31,0,0,1,112.56,59a3.19,3.19,0,0,1-.57,1.9,2.94,2.94,0,0,1-1.41,1.1L113,66.4Zm10.2,0-.61-1.87h-3.63l-.59,1.87h-2.21l3.47-9.91a1.65,1.65,0,0,1,.51-.71,1.29,1.29,0,0,1,1.35,0,1.52,1.52,0,0,1,.45.73L123,66.4Zm10.74-8.94h-2.91V66.4h-2.11V57.46h-2.89V55.58h7.91Zm9.57,3.85a6.17,6.17,0,0,1-1,4,4.06,4.06,0,0,1-3.29,1.23,4,4,0,0,1-3.28-1.23,6.32,6.32,0,0,1-1-4v-.79a5.73,5.73,0,0,1,1-3.75,4,4,0,0,1,3.25-1.23A4.06,4.06,0,0,1,140,56.73a5.8,5.8,0,0,1,1,3.76Zm7.61,5.09-2.12-4H145v4h-2.11V57.9a2.42,2.42,0,0,1,.56-1.77,2.65,2.65,0,0,1,1.89-.55h1.79A3.31,3.31,0,0,1,150.67,59a3.19,3.19,0,0,1-.57,1.9,3,3,0,0,1-1.4,1.1l2.41,4.36Zm6.31,0h-2.12V55.58H155Zm10.46-5.09a6.17,6.17,0,0,1-1,4,5,5,0,0,1-6.57,0,6.32,6.32,0,0,1-1-4v-.79a5.73,5.73,0,0,1,1-3.75,4,4,0,0,1,3.25-1.23,4,4,0,0,1,3.28,1.24,5.74,5.74,0,0,1,1.05,3.76ZM178,57.46h-5V60h3.51l-.15,1.89h-3.36v1.5a1.1,1.1,0,0,0,.29.88,1.61,1.61,0,0,0,1.05.25H178V66.4h-3.83a4,4,0,0,1-2.56-.63,2.78,2.78,0,0,1-.74-2.23v-8H178Zm7.71,8.94h-2.12V55.58h2.12Zm12.63,0h-2.11V59.94l-2,4.11c-.28.54-.63.82-1,.82s-.78-.29-1.06-.87l-2-4.06V66.4H188V55.58h2.08l3.06,6.25,3-6.25h2.08Zm8.23,0-.61-1.87h-3.64l-.59,1.87h-2.2l3.46-9.91a1.83,1.83,0,0,1,.51-.71,1.31,1.31,0,0,1,1.36,0,1.6,1.6,0,0,1,.44.73l3.47,9.91Zm5.26-4.63c0,.15,0,.39.05.72a3.13,3.13,0,0,0,.12.7c.06.15.14.33.24.55a1,1,0,0,0,.41.47,2.5,2.5,0,0,0,1.41.4,1.92,1.92,0,0,0,1.87-1.13v-.73h-1.31V61h3.12v3.27a3.29,3.29,0,0,1-1.49,1.67,4.65,4.65,0,0,1-2.31.56,4,4,0,0,1-3.32-1.28,6.16,6.16,0,0,1-1-3.9V60a4.64,4.64,0,0,1,1.11-3.3,4,4,0,0,1,3.07-1.18,4.25,4.25,0,0,1,3.15,1.18,3.41,3.41,0,0,1,.84,2.51h-2c0-1.2-.64-1.81-1.93-1.81a2.09,2.09,0,0,0-1,.22,1.72,1.72,0,0,0-.6.51,2.3,2.3,0,0,0-.31.85,6.81,6.81,0,0,0-.12.95c0,.25,0,.59,0,1ZM227,57.46h-5V60h3.51l-.15,1.89H222v1.5a1.1,1.1,0,0,0,.29.88,1.61,1.61,0,0,0,1,.25H227V66.4H223.2a4,4,0,0,1-2.57-.63,2.82,2.82,0,0,1-.73-2.23v-8H227Zm10.5,7.85a1.31,1.31,0,0,1-.3.86.9.9,0,0,1-.72.35,1.94,1.94,0,0,1-1.71-1.21l-3.74-5.86v7h-2.12V55.58h2l4.44,7.08V55.58h2.11Zm9.32-7.85h-5V60h3.51l-.15,1.89h-3.36v1.5a1.1,1.1,0,0,0,.28.88,1.65,1.65,0,0,0,1,.25h3.68V66.4H243a4,4,0,0,1-2.56-.63,2.82,2.82,0,0,1-.74-2.23v-8h7.13Zm8.24,8.16a4.56,4.56,0,0,1-2.87.87,5.19,5.19,0,0,1-2.68-.76,3.12,3.12,0,0,1-1-1.11,3.31,3.31,0,0,1-.41-1.65l1.92-.09a1.43,1.43,0,0,0,.7,1.27,2.71,2.71,0,0,0,1.55.46c1.27,0,1.9-.45,1.9-1.34q0-1.1-1.29-1.29l-1.77-.18a3.73,3.73,0,0,1-2.09-.95,2.81,2.81,0,0,1-.78-2.14,2.87,2.87,0,0,1,1.11-2.31,4.27,4.27,0,0,1,2.81-.91,4.05,4.05,0,0,1,2.72.86,2.74,2.74,0,0,1,1,2.21l-1.89.09a1.57,1.57,0,0,0-1.78-1.32,2.4,2.4,0,0,0-1.45.39,1.16,1.16,0,0,0-.52.94,1,1,0,0,0,.38.85,1.82,1.82,0,0,0,.94.39l1.73.18c1.94.26,2.91,1.31,2.91,3.13A2.89,2.89,0,0,1,255.09,65.62Z"/><polygon class="cls-2" points="202.81 62.75 205.42 62.75 204.15 58.77 202.81 62.75"/><path class="cls-2" d="M108.91,57.46h-1a.84.84,0,0,0-.94,1v2.21h2a1.45,1.45,0,0,0,1.1-.47,1.61,1.61,0,0,0,.43-1.15,1.56,1.56,0,0,0-.41-1.12A1.53,1.53,0,0,0,108.91,57.46Z"/><polygon class="cls-2" points="77.6 62.75 80.22 62.75 78.94 58.47 77.6 62.75"/><polygon class="cls-2" points="117.04 62.75 119.66 62.75 118.38 58.47 117.04 62.75"/><path class="cls-3" d="M69.35,64.27a1.1,1.1,0,0,1-.29-.88V55.58H67v7.81a2.93,2.93,0,0,0,.81,2.31,4,4,0,0,0,2.64.7h3.22V64.52H70.4A1.61,1.61,0,0,1,69.35,64.27Z"/><path class="cls-3" d="M79.6,55.76a1.08,1.08,0,0,0-.66-.18,1.13,1.13,0,0,0-.69.2,1.65,1.65,0,0,0-.51.71L74.27,66.4h2.21l.59-1.87h3.64l.6,1.87h2.21l-3.47-9.91A1.52,1.52,0,0,0,79.6,55.76Z"/><path class="cls-3" d="M91.36,60.76a2.42,2.42,0,0,0,.92-.82,2.3,2.3,0,0,0,.42-1.4,3,3,0,0,0-.78-2.19,3.22,3.22,0,0,0-2.34-.77H85v8a2.69,2.69,0,0,0,.75,2.16,4,4,0,0,0,2.55.62h1.46a2.81,2.81,0,0,0,3.08-3.11A2.54,2.54,0,0,0,91.36,60.76Zm-4.24-3.3h2.3a1.17,1.17,0,0,1,0,2.34h-2.3Zm2.43,7.06H88.46a1.64,1.64,0,0,1-1-.25,1,1,0,0,1-.31-.86v-1.7h2.43a1,1,0,0,1,.93.37,1.94,1.94,0,0,1,.26,1.1C90.74,64.07,90.34,64.52,89.55,64.52Z"/><path class="cls-3" d="M98.62,55.49a4,4,0,0,0-3.25,1.23,5.73,5.73,0,0,0-1,3.75v.79a6.32,6.32,0,0,0,1,4,5,5,0,0,0,6.57,0,6.11,6.11,0,0,0,1-4v-.82a5.74,5.74,0,0,0-1-3.76A4,4,0,0,0,98.62,55.49Zm2.21,5.77a7.12,7.12,0,0,1-.21,1.9,2,2,0,0,1-.35.76,1.63,1.63,0,0,1-.64.49,2.54,2.54,0,0,1-2,0,1.77,1.77,0,0,1-.63-.49,4.57,4.57,0,0,1-.54-2.65V60.7a6,6,0,0,1,.35-2.32,2.16,2.16,0,0,1,3.66,0,6.13,6.13,0,0,1,.36,2.32Z"/><path class="cls-3" d="M112,60.94a3.19,3.19,0,0,0,.57-1.9A3.31,3.31,0,0,0,109,55.58h-1.79a2.61,2.61,0,0,0-1.88.55,2.38,2.38,0,0,0-.57,1.77v8.5h2.12v-4h1.52l2.11,4H113L110.58,62A2.94,2.94,0,0,0,112,60.94Z"/><path class="cls-3" d="M119,55.76a1.29,1.29,0,0,0-1.35,0,1.65,1.65,0,0,0-.51.71l-3.47,9.91h2.21l.59-1.87h3.63l.61,1.87H123l-3.47-9.91A1.52,1.52,0,0,0,119,55.76Z"/><polygon class="cls-3" points="123.58 57.46 126.47 57.46 126.47 66.4 128.58 66.4 128.58 57.46 131.49 57.46 131.49 55.58 123.58 55.58 123.58 57.46"/><path class="cls-3" d="M136.74,55.49a4,4,0,0,0-3.25,1.23,5.73,5.73,0,0,0-1,3.75v.79a6.32,6.32,0,0,0,1,4,4,4,0,0,0,3.28,1.23A4.06,4.06,0,0,0,140,65.26a6.17,6.17,0,0,0,1-4v-.82a5.8,5.8,0,0,0-1-3.76A4.06,4.06,0,0,0,136.74,55.49ZM139,61.26a7.12,7.12,0,0,1-.21,1.9,2,2,0,0,1-.35.76,1.71,1.71,0,0,1-.64.49,2.31,2.31,0,0,1-1,.2,2.2,2.2,0,0,1-1-.21,1.61,1.61,0,0,1-.63-.49,4.47,4.47,0,0,1-.55-2.65V60.7a6.14,6.14,0,0,1,.35-2.32,2.17,2.17,0,0,1,3.67,0A6.13,6.13,0,0,1,139,60.7Z"/><path class="cls-3" d="M150.1,60.94a3.19,3.19,0,0,0,.57-1.9,3.31,3.31,0,0,0-3.51-3.46h-1.79a2.65,2.65,0,0,0-1.89.55,2.42,2.42,0,0,0-.56,1.77v8.5H145v-4h1.52l2.12,4h2.44L148.7,62A3,3,0,0,0,150.1,60.94Zm-2-.78a1.46,1.46,0,0,1-1.11.47h-2V58.42a.84.84,0,0,1,.94-1H147A1.46,1.46,0,0,1,148.56,59,1.61,1.61,0,0,1,148.13,60.16Z"/><rect class="cls-3" x="152.86" y="55.58" width="2.11" height="10.83"/><path class="cls-3" d="M161.11,55.49a4,4,0,0,0-3.25,1.23,5.73,5.73,0,0,0-1,3.75v.79a6.32,6.32,0,0,0,1,4,5,5,0,0,0,6.57,0,6.17,6.17,0,0,0,1-4v-.82a5.74,5.74,0,0,0-1.05-3.76A4,4,0,0,0,161.11,55.49Zm2.21,5.77a7.12,7.12,0,0,1-.21,1.9,2,2,0,0,1-.35.76,1.63,1.63,0,0,1-.64.49,2.54,2.54,0,0,1-2,0,1.61,1.61,0,0,1-.63-.49,4.55,4.55,0,0,1-.55-2.65V60.7a6.14,6.14,0,0,1,.35-2.32,2.17,2.17,0,0,1,3.67,0,6.13,6.13,0,0,1,.36,2.32Z"/><path class="cls-3" d="M170.82,63.54a2.78,2.78,0,0,0,.74,2.23,4,4,0,0,0,2.56.63H178V64.52h-3.68a1.61,1.61,0,0,1-1.05-.25,1.1,1.1,0,0,1-.29-.88v-1.5h3.36l.15-1.89h-3.51V57.46h5V55.58h-7.13Z"/><rect class="cls-3" x="183.54" y="55.58" width="2.11" height="10.83"/><path class="cls-3" d="M193.17,61.83l-3.06-6.25H188V66.4h2.11V59.94l2,4.06c.28.58.63.87,1.06.87s.77-.28,1-.82l2-4.11V66.4h2.11V55.58h-2.08Z"/><path class="cls-3" d="M204.81,55.76a1.31,1.31,0,0,0-1.36,0,1.83,1.83,0,0,0-.51.71l-3.46,9.91h2.2l.59-1.87h3.64l.61,1.87h2.2l-3.47-9.91A1.6,1.6,0,0,0,204.81,55.76Z"/><path class="cls-3" d="M204.07,54.16a1.46,1.46,0,0,0,1.17-.73l1.12-1.61h-2.08l-.58,1.61a1.16,1.16,0,0,0-.06.34C203.64,54,203.78,54.16,204.07,54.16Z"/><path class="cls-3" d="M211.91,59a2.3,2.3,0,0,1,.31-.85,1.72,1.72,0,0,1,.6-.51,2.09,2.09,0,0,1,1-.22c1.29,0,1.93.61,1.93,1.81h2a3.41,3.41,0,0,0-.84-2.51,4.25,4.25,0,0,0-3.15-1.18,4,4,0,0,0-3.07,1.18,4.64,4.64,0,0,0-1.11,3.3v1.34a6.16,6.16,0,0,0,1,3.9,4,4,0,0,0,3.32,1.28,4.65,4.65,0,0,0,2.31-.56,3.29,3.29,0,0,0,1.49-1.67V61h-3.12v1.76h1.31v.73A1.92,1.92,0,0,1,214,64.61a2.5,2.5,0,0,1-1.41-.4,1,1,0,0,1-.41-.47c-.1-.22-.18-.4-.24-.55a3.13,3.13,0,0,1-.12-.7c0-.33,0-.57-.05-.72v-.86c0-.42,0-.76,0-1A6.81,6.81,0,0,1,211.91,59Z"/><path class="cls-3" d="M219.9,63.54a2.82,2.82,0,0,0,.73,2.23,4,4,0,0,0,2.57.63H227V64.52h-3.68a1.61,1.61,0,0,1-1-.25,1.1,1.1,0,0,1-.29-.88v-1.5h3.36l.15-1.89H222V57.46h5V55.58H219.9Z"/><path class="cls-3" d="M235.42,62.66,231,55.58h-2V66.4h2.12v-7l3.74,5.86a1.94,1.94,0,0,0,1.71,1.21.9.9,0,0,0,.72-.35,1.31,1.31,0,0,0,.3-.86V55.58h-2.11Z"/><path class="cls-3" d="M239.72,63.54a2.82,2.82,0,0,0,.74,2.23,4,4,0,0,0,2.56.63h3.83V64.52h-3.68a1.65,1.65,0,0,1-1-.25,1.1,1.1,0,0,1-.28-.88v-1.5h3.36l.15-1.89h-3.51V57.46h5V55.58h-7.13Z"/><path class="cls-3" d="M253.31,60.08l-1.73-.18a1.82,1.82,0,0,1-.94-.39,1,1,0,0,1-.38-.85,1.16,1.16,0,0,1,.52-.94,2.4,2.4,0,0,1,1.45-.39A1.57,1.57,0,0,1,254,58.65l1.89-.09a2.74,2.74,0,0,0-1-2.21,4.05,4.05,0,0,0-2.72-.86,4.27,4.27,0,0,0-2.81.91,2.87,2.87,0,0,0-1.11,2.31,2.81,2.81,0,0,0,.78,2.14,3.73,3.73,0,0,0,2.09.95l1.77.18q1.29.2,1.29,1.29c0,.89-.63,1.34-1.9,1.34a2.71,2.71,0,0,1-1.55-.46,1.43,1.43,0,0,1-.7-1.27l-1.92.09a3.31,3.31,0,0,0,.41,1.65,3.12,3.12,0,0,0,1,1.11,5.19,5.19,0,0,0,2.68.76,4.56,4.56,0,0,0,2.87-.87,2.89,2.89,0,0,0,1.13-2.41C256.22,61.39,255.25,60.34,253.31,60.08Z"/><path class="cls-1" d="M100.87,14.91v29.6a3.93,3.93,0,0,1-.92,2.61,2.8,2.8,0,0,1-2.18,1.09c-2.12,0-3.87-1.24-5.22-3.7L81.17,26.7V47.84H74.74V14.91h6.2l13.5,21.55V14.91Z"/><polygon class="cls-1" points="127.68 20.65 118.85 20.65 118.85 47.84 112.42 47.84 112.42 20.65 103.64 20.65 103.64 14.91 127.68 14.91 127.68 20.65"/><path class="cls-1" d="M152.48,47.84H140.83q-5.55,0-7.79-1.92t-2.25-6.78V14.91h21.69v5.74H137.22v7.72H147.9l-.46,5.73H137.22v4.58a3.36,3.36,0,0,0,.88,2.68,5.06,5.06,0,0,0,3.19.74h11.19Z"/><path class="cls-1" d="M180.55,47.84h-7.44l-6.43-12.21h-4.62V47.84h-6.43V22c0-2.47.57-4.26,1.71-5.39s3-1.69,5.74-1.69h5.45a10.07,10.07,0,0,1,10.68,10.54,9.63,9.63,0,0,1-1.73,5.76,8.93,8.93,0,0,1-4.28,3.35Zm-9.08-19a4.94,4.94,0,0,0,1.32-3.51,4.64,4.64,0,0,0-1.28-3.4,4.54,4.54,0,0,0-3.4-1.29h-3.19c-1.91,0-2.86,1-2.86,2.91v6.7h6.05a4.4,4.4,0,0,0,3.36-1.41"/><path class="cls-1" d="M17.73,25.6l-6-5.86a.55.55,0,0,0-.8,0A27.61,27.61,0,0,0,4.46,35.41.54.54,0,0,0,5,36l8.39.09a.54.54,0,0,0,.55-.48,18.15,18.15,0,0,1,3.84-9.28.54.54,0,0,0-.05-.73"/><path class="cls-1" d="M13.44,39.54,5,39.45a.55.55,0,0,0-.55.6,27.67,27.67,0,0,0,4.41,12.8.55.55,0,0,0,.85.08l6.06-6.18a.55.55,0,0,0,.09-.64A18.29,18.29,0,0,1,14,40a.55.55,0,0,0-.53-.48"/><rect class="cls-1" x="65.5" y="14.91" width="6.43" height="32.92"/><path class="cls-4" d="M203,47.84h-9.8c-3.7,0-6.38-.72-8-2.15s-2.48-3.77-2.48-7V14.91h6.43V38.68a3.36,3.36,0,0,0,.88,2.68,5,5,0,0,0,3.19.74H203Z"/><path class="cls-4" d="M233.14,47.84h-6.71l-1.85-5.69H213.53l-1.81,5.69H205l10.54-30.15a5.2,5.2,0,0,1,1.55-2.18,3.57,3.57,0,0,1,2.11-.6,3.35,3.35,0,0,1,2,.56,4.67,4.67,0,0,1,1.36,2.22Zm-10-11.1-3.88-13-4.07,13Z"/><path class="cls-4" d="M259,38.36q0,4.57-2.48,7a9.4,9.4,0,0,1-6.91,2.45h-4.44c-3.64,0-6.22-.64-7.75-1.9s-2.29-3.45-2.29-6.57V14.91h13.92c3.15,0,5.51.79,7.1,2.36a8.94,8.94,0,0,1,2.38,6.66,7,7,0,0,1-1.27,4.25,7.57,7.57,0,0,1-2.8,2.5Q259,32.81,259,38.36M248.56,27.77q3.57,0,3.57-3.56c0-2.38-1.19-3.56-3.57-3.56h-7v7.12Zm4,10.26a5.84,5.84,0,0,0-.79-3.35A3.17,3.17,0,0,0,249,33.55h-7.4v5.18a3.16,3.16,0,0,0,.95,2.63,5.08,5.08,0,0,0,3.12.74H249c2.41,0,3.61-1.35,3.61-4.07"/><path class="cls-1" d="M68.17,11.38a4.63,4.63,0,0,0,1.13-9.2,4.69,4.69,0,0,0-5.19,4.05,4.63,4.63,0,0,0,4.06,5.15"/><path class="cls-4" d="M55.86,60.2H48.21A27.7,27.7,0,0,0,59.68,40a.54.54,0,0,0-.54-.59H50.73a.56.56,0,0,0-.55.49,18.25,18.25,0,0,1-31.63,10,.55.55,0,0,0-.79,0l-5.86,6a.54.54,0,0,0,0,.75,27.85,27.85,0,0,0,4,3.54h-8c-1,0-1.78,1.32-1.78,2.95v2.62c0,1.63.8,3,1.78,3H55.86c1,0,1.78-1.32,1.78-3V63.15C57.64,61.52,56.84,60.2,55.86,60.2Z"/><rect class="cls-4" x="40.53" y="28.1" width="1.9" height="6.02" transform="translate(-9.85 38.45) rotate(-45)"/><path class="cls-4" d="M60.3,16.73l1.35-1.35-4.26-4.25-1.34,1.34.56.57L55.27,14.4l-.58-.58L40.55,28l4.26,4.26L48,29a18.13,18.13,0,0,1,2.42,7.21.55.55,0,0,0,.55.48l8.39-.09a.54.54,0,0,0,.54-.59,27.63,27.63,0,0,0-5.07-13.84L59,18.08l-.56-.56,1.34-1.37Z"/><path class="cls-1" d="M32.05,19.53a18.14,18.14,0,0,1,3.32.3.58.58,0,0,0,.5-.16l6.45-6.85a.55.55,0,0,0-.2-.89,27.71,27.71,0,0,0-27.71,4.46.55.55,0,0,0,0,.81l6,5.91a.56.56,0,0,0,.72,0,18.15,18.15,0,0,1,10.9-3.62"/><path class="cls-1" d="M90.59,58.63a1,1,0,0,0-1.17-1.17h-2.3V59.8h2.3A1,1,0,0,0,90.59,58.63Z"/><path class="cls-1" d="M136.76,57.37a1.79,1.79,0,0,0-1.84,1,6.14,6.14,0,0,0-.35,2.32v.56a4.47,4.47,0,0,0,.55,2.65,1.61,1.61,0,0,0,.63.49,2.2,2.2,0,0,0,1,.21,2.31,2.31,0,0,0,1-.2,1.71,1.71,0,0,0,.64-.49,2,2,0,0,0,.35-.76,7.12,7.12,0,0,0,.21-1.9V60.7a6.13,6.13,0,0,0-.36-2.32A1.78,1.78,0,0,0,136.76,57.37Z"/><path class="cls-1" d="M147,57.46H146a.84.84,0,0,0-.94,1v2.21h2a1.46,1.46,0,0,0,1.11-.47,1.61,1.61,0,0,0,.43-1.15A1.46,1.46,0,0,0,147,57.46Z"/><path class="cls-1" d="M161.13,57.37a1.79,1.79,0,0,0-1.84,1,6.14,6.14,0,0,0-.35,2.32v.56a4.55,4.55,0,0,0,.55,2.65,1.61,1.61,0,0,0,.63.49,2.54,2.54,0,0,0,2,0,1.63,1.63,0,0,0,.64-.49,2,2,0,0,0,.35-.76,7.12,7.12,0,0,0,.21-1.9V60.7a6.13,6.13,0,0,0-.36-2.32A1.78,1.78,0,0,0,161.13,57.37Z"/><path class="cls-1" d="M98.65,57.37a1.77,1.77,0,0,0-1.84,1,6,6,0,0,0-.35,2.32v.56A4.57,4.57,0,0,0,97,63.91a1.77,1.77,0,0,0,.63.49,2.54,2.54,0,0,0,2,0,1.63,1.63,0,0,0,.64-.49,2,2,0,0,0,.35-.76,7.12,7.12,0,0,0,.21-1.9V60.7a6.13,6.13,0,0,0-.36-2.32A1.76,1.76,0,0,0,98.65,57.37Z"/><path class="cls-1" d="M89.55,61.71H87.12v1.7a1,1,0,0,0,.31.86,1.64,1.64,0,0,0,1,.25h1.09c.79,0,1.19-.45,1.19-1.34a1.94,1.94,0,0,0-.26-1.1A1,1,0,0,0,89.55,61.71Z"/><polygon class="cls-1" points="77.6 62.75 78.94 58.47 80.22 62.75 77.6 62.75"/><path class="cls-1" d="M110,60.16a1.45,1.45,0,0,1-1.1.47h-2V58.42a.84.84,0,0,1,.94-1h1a1.53,1.53,0,0,1,1.12.43,1.56,1.56,0,0,1,.41,1.12A1.61,1.61,0,0,1,110,60.16Z"/><polygon class="cls-1" points="117.04 62.75 118.38 58.47 119.66 62.75 117.04 62.75"/><polygon class="cls-1" points="202.81 62.75 204.15 58.77 205.42 62.75 202.81 62.75"/></svg>